P2
64 64
255
70 77 75 72 72 73 72 71 67 62 95 188 119 39 114 159 196 201 203 201 200 194 175 165 181 115 91 101 112 113 106 94 158 194 201 202 201 202 205 200 76 192 194 113 82 66 72 69 79 129 177 193 197 200 201 166 88 86 134 160 167 186 194 189 
75 87 88 92 87 80 83 83 82 80 78 113 209 214 181 176 223 232 239 240 231 198 197 206 92 47 50 53 54 55 56 77 177 234 236 236 237 235 232 176 136 232 225 207 207 175 93 58 145 191 213 221 224 228 232 230 157 90 144 169 196 215 219 212 
139 168 179 200 198 131 66 64 65 70 68 67 70 127 136 169 208 123 81 69 94 146 141 54 50 50 52 53 55 56 58 59 60 117 228 240 235 226 196 124 170 232 229 203 219 217 217 143 180 202 216 223 224 227 231 231 189 63 157 184 205 212 210 209 
177 209 212 212 215 211 77 50 125 89 90 50 35 42 77 133 69 36 40 42 41 43 44 46 50 51 52 54 56 57 57 59 62 61 77 183 223 186 142 92 173 189 217 228 218 219 232 223 184 201 207 213 220 226 228 224 152 69 190 179 191 189 189 195 
186 220 224 230 228 210 76 88 173 190 198 188 102 24 64 90 34 36 39 41 40 39 42 43 47 48 50 51 53 54 56 57 57 58 60 64 114 76 166 126 179 196 200 232 228 229 241 231 209 191 206 218 224 225 225 210 101 112 196 186 176 183 197 208 
191 219 217 227 232 179 51 164 190 202 207 208 198 26 98 60 34 34 39 39 39 39 45 61 44 48 49 51 48 48 55 56 57 56 59 60 62 92 133 103 134 188 211 222 234 242 235 232 225 204 215 224 226 226 216 183 45 152 195 196 188 183 198 212 
188 215 214 218 207 90 123 183 202 204 220 218 139 45 145 48 35 34 36 38 38 43 133 188 54 47 49 57 55 46 48 52 54 56 56 54 55 58 66 104 131 193 215 226 235 236 230 231 230 215 216 224 227 219 189 89 8 175 192 195 192 180 202 217 
140 172 194 198 103 61 167 194 202 211 243 154 25 118 107 40 34 33 37 36 44 84 205 147 45 45 46 53 50 47 48 53 54 57 58 58 56 55 56 57 79 162 210 224 226 228 232 232 233 219 222 225 226 182 77 4 7 177 193 191 199 190 201 213 
153 189 192 191 54 132 182 198 199 223 124 16 42 46 46 39 35 34 33 33 64 161 210 61 44 48 48 47 46 46 47 51 55 59 59 63 61 58 56 55 54 59 167 218 223 224 229 230 232 226 225 228 224 87 1 0 0 158 194 184 191 195 205 221 
165 198 205 210 172 163 188 203 197 90 6 23 42 41 60 38 34 34 32 33 111 198 139 42 45 49 57 53 47 49 50 50 53 57 60 60 61 59 57 57 57 57 65 194 223 224 229 230 233 231 227 233 220 25 0 0 2 122 188 185 176 196 206 224 
157 197 203 212 197 167 223 198 69 3 3 82 40 49 44 37 36 34 32 69 159 199 57 41 42 47 51 53 49 49 53 55 55 57 60 62 62 60 58 58 57 58 58 104 204 219 226 233 237 225 180 156 174 126 60 72 158 189 194 195 172 188 204 224 
156 193 203 207 179 158 172 54 1 0 56 74 37 32 31 34 36 32 30 128 206 152 49 43 44 48 50 54 50 48 52 55 57 58 57 61 62 63 60 59 57 57 66 62 94 200 221 218 173 145 138 149 184 199 207 188 190 203 208 211 206 193 197 216 
158 191 200 195 92 13 21 0 0 88 114 47 33 31 30 32 33 33 54 173 218 116 55 44 44 48 52 73 99 50 51 54 55 58 56 59 60 62 62 60 57 58 59 64 57 100 148 81 79 137 142 177 200 208 214 214 207 208 219 222 214 210 201 201 
152 190 199 140 17 0 0 0 39 199 95 33 34 32 31 31 32 33 115 191 226 100 60 45 48 49 54 62 94 78 47 51 53 56 56 58 60 61 64 60 68 79 72 61 57 53 32 19 72 94 143 184 201 210 217 220 219 218 227 232 226 220 213 203 
169 207 205 162 121 68 3 3 155 195 108 33 33 31 29 32 33 92 169 205 231 142 56 47 48 49 53 57 54 91 50 51 55 57 58 57 58 81 178 117 135 171 127 60 118 55 57 6 37 79 143 182 200 210 217 223 222 220 222 212 216 241 233 209 
196 223 221 220 213 177 68 50 201 190 147 31 33 30 34 41 62 146 172 208 231 189 71 42 46 48 52 59 61 59 80 50 53 57 60 60 61 80 228 224 212 235 148 74 153 80 59 27 9 63 151 182 199 208 219 232 220 216 225 198 208 241 229 190 
197 225 224 221 208 148 59 114 198 180 180 62 32 42 134 143 163 169 165 184 213 204 181 65 44 48 50 58 101 65 69 46 51 57 59 58 61 99 212 234 200 227 130 81 79 67 56 47 9 54 143 184 198 207 224 238 223 213 211 213 202 151 142 187 
199 228 225 221 187 86 12 137 195 169 180 145 28 149 179 156 182 169 185 188 216 224 212 193 52 47 51 62 130 93 57 47 51 55 58 59 62 112 198 199 151 179 86 70 54 58 55 70 7 51 136 183 200 207 231 242 225 210 205 172 137 143 190 203 
199 226 225 208 106 14 0 167 193 179 193 203 99 185 167 174 192 197 202 205 210 209 216 215 117 47 53 70 204 169 57 49 50 54 57 59 58 96 129 105 90 81 73 63 58 119 63 83 6 57 126 179 198 208 237 243 224 210 185 111 135 189 191 205 
171 200 201 154 32 0 9 188 180 187 191 204 183 180 177 187 196 205 213 217 215 228 226 220 146 51 55 77 209 222 73 50 47 52 55 58 59 66 75 80 70 61 62 52 74 233 118 106 4 57 126 181 197 209 233 243 220 207 162 157 238 203 188 204 
137 156 161 179 185 104 26 187 175 179 186 203 170 180 183 191 205 207 219 216 215 238 228 222 129 56 56 79 193 238 109 51 47 53 54 55 58 63 67 63 61 60 54 51 116 233 124 79 4 44 115 168 188 204 214 242 230 199 178 239 171 162 193 207 
144 185 160 178 185 90 17 180 172 176 179 186 162 176 193 193 204 214 222 215 215 222 223 220 139 52 55 68 165 227 141 55 46 51 53 55 56 64 67 66 63 58 55 58 175 201 75 41 5 42 91 146 167 193 208 237 231 178 231 175 130 171 193 207 
105 165 173 153 129 16 13 147 169 171 164 160 160 167 191 190 201 210 216 216 213 220 223 222 169 50 54 59 100 121 105 63 48 43 50 55 55 61 62 61 59 57 58 135 198 93 55 22 2 35 65 97 134 158 172 185 164 207 241 165 143 147 185 205 
61 77 67 52 16 0 13 156 149 149 99 60 129 173 182 186 199 207 212 219 219 223 224 223 173 46 53 55 66 78 84 69 85 129 179 201 101 52 58 59 60 59 88 191 150 65 51 18 2 13 30 36 28 132 157 130 210 231 241 238 231 214 171 196 
9 10 3 0 4 56 41 17 42 70 21 9 137 178 185 186 196 201 209 220 226 223 225 222 158 41 50 52 55 58 69 69 78 107 159 227 181 50 59 60 60 67 114 164 88 55 63 160 2 0 3 3 90 214 213 212 210 236 237 232 240 243 194 182 
106 79 23 33 106 34 12 23 66 28 11 6 164 180 182 185 196 200 209 220 224 224 227 223 140 41 46 50 55 55 67 69 68 60 137 217 226 67 55 57 60 69 93 87 64 57 66 177 0 0 0 1 155 210 224 233 229 234 240 241 242 242 203 163 
153 161 110 108 50 16 13 42 35 11 10 11 184 192 181 183 191 198 212 221 225 224 227 223 122 36 43 48 53 54 62 68 65 55 133 193 226 131 46 54 58 56 54 57 61 57 9 81 53 0 0 0 166 202 222 230 231 236 242 244 244 243 184 143 
156 145 109 66 25 13 20 32 16 15 11 39 193 198 188 178 184 195 211 223 225 223 225 221 110 32 39 46 55 54 57 55 83 124 163 178 224 188 43 54 88 103 111 112 55 11 92 185 179 121 37 1 157 193 212 222 226 233 240 243 244 244 149 121 
133 99 90 32 17 16 18 18 14 11 9 60 197 200 193 191 188 196 211 222 224 226 225 222 95 26 32 34 37 35 33 80 156 194 194 179 223 225 97 90 128 106 172 189 193 102 158 201 208 201 158 27 135 183 197 212 218 225 233 243 244 244 84 51 
86 93 41 13 11 11 15 15 12 11 9 97 200 198 194 190 193 204 215 223 224 224 228 223 59 8 9 24 46 58 84 161 191 197 198 175 205 226 155 103 107 124 168 196 208 215 190 201 213 212 198 98 85 173 185 197 206 214 223 234 234 220 114 127 
90 67 25 12 10 12 14 13 11 11 10 136 204 198 194 192 198 209 219 224 225 226 229 219 41 27 94 152 166 150 106 155 116 194 206 174 187 225 214 137 118 131 169 196 213 217 209 205 216 234 224 158 30 119 164 173 180 181 188 192 187 189 109 42 
70 44 22 14 14 14 16 14 14 12 8 161 203 197 195 197 203 212 222 225 225 228 231 186 24 128 185 199 197 195 178 90 51 92 144 187 189 225 234 192 137 148 171 184 131 111 161 182 197 230 242 200 31 71 130 134 130 111 97 80 115 82 40 41 
38 28 23 17 14 15 16 16 15 13 7 166 202 197 195 200 205 212 221 225 225 229 230 111 69 178 195 203 206 208 216 136 78 28 168 192 197 223 237 224 162 165 160 106 60 109 172 199 205 201 231 210 57 25 78 79 66 48 47 50 37 39 44 43 
29 33 28 22 14 12 18 18 13 12 13 170 199 196 195 202 209 216 223 225 225 228 220 36 141 190 193 191 197 205 160 155 178 78 167 207 203 221 234 227 190 196 173 74 106 146 180 203 211 213 208 203 59 7 40 46 32 24 35 34 39 43 45 46 
26 28 31 25 23 16 24 20 13 15 17 176 200 197 197 205 212 220 224 225 225 228 180 20 179 195 192 185 191 199 210 118 101 172 185 187 208 219 225 187 177 209 111 101 140 151 188 206 214 217 214 194 33 0 15 24 14 27 33 40 40 39 40 46 
23 26 28 28 28 17 22 18 15 10 31 178 201 195 197 203 215 221 222 225 225 221 115 82 195 199 194 193 188 168 158 169 188 183 162 200 191 142 162 166 184 148 151 133 159 177 196 207 218 227 219 203 15 0 0 3 32 33 36 41 42 41 40 67 
23 20 21 23 25 17 18 18 11 6 46 184 201 196 197 207 217 222 223 225 221 199 48 124 202 185 182 187 186 182 183 187 194 195 197 199 203 174 82 137 165 195 205 205 206 206 204 204 218 229 221 208 32 0 0 26 35 36 39 43 48 45 50 146 
23 19 19 20 22 19 16 15 8 3 62 187 198 196 199 208 218 221 221 222 213 156 20 148 188 173 177 179 172 173 180 185 192 200 201 202 217 212 146 148 173 190 206 210 217 222 226 219 214 227 222 211 50 0 9 32 30 37 40 42 48 51 117 229 
24 22 19 10 17 18 13 7 6 1 89 191 197 196 201 209 218 220 219 217 195 105 23 146 164 171 172 172 169 175 180 191 191 198 199 206 238 241 181 148 168 179 200 206 225 245 243 230 211 221 215 206 55 1 27 26 29 39 45 43 47 72 185 239 
25 24 25 13 4 12 13 40 64 34 113 191 197 197 203 208 216 217 215 205 172 73 32 142 162 171 173 169 170 169 178 188 188 194 200 220 235 242 203 139 153 168 187 201 215 229 226 210 205 213 212 202 49 10 24 30 36 40 49 47 51 92 217 197 
24 21 22 14 12 47 68 30 53 4 143 192 197 197 204 210 214 210 210 194 159 58 35 135 163 174 174 169 167 167 177 180 177 193 202 209 209 219 208 134 142 155 176 186 191 200 206 203 202 206 206 202 30 9 17 28 38 42 48 48 58 136 195 87 
20 23 19 15 73 42 103 67 69 14 167 196 197 199 206 211 212 206 204 184 153 50 32 126 148 155 165 168 165 162 168 169 168 188 193 195 198 199 187 139 140 157 169 178 182 193 200 199 196 199 201 199 13 10 20 30 37 46 48 49 67 156 130 50 
16 14 12 65 19 86 91 105 41 31 171 199 197 199 207 210 211 201 198 175 147 40 17 111 133 124 128 146 148 150 153 154 160 177 185 186 183 183 169 142 140 150 160 169 175 185 190 194 192 195 200 179 4 10 21 30 37 44 47 51 70 144 100 44 
26 21 18 23 10 99 79 135 93 51 175 198 195 200 207 210 207 203 197 176 153 38 6 89 132 114 98 120 119 125 136 141 152 165 181 182 178 180 163 150 153 153 159 164 172 181 183 190 189 194 197 146 1 11 25 30 37 43 44 50 63 108 56 40 
12 17 15 13 19 36 91 130 103 94 175 199 196 202 208 211 202 198 194 176 156 28 0 58 123 125 104 119 111 108 132 134 141 156 175 180 178 170 146 141 155 157 161 158 171 177 179 186 188 191 193 127 2 8 27 33 38 41 41 47 54 62 46 31 
5 6 4 1 12 26 49 64 27 86 178 199 198 204 209 212 201 195 193 179 152 16 0 26 87 128 124 125 113 106 141 139 130 142 166 175 177 166 127 128 147 157 162 160 167 172 175 178 185 191 198 108 2 6 29 32 37 43 41 44 47 49 46 30 
1 0 0 7 16 21 57 24 20 104 181 200 198 205 210 211 201 196 195 182 142 7 0 5 60 98 135 126 127 108 139 143 125 129 155 171 175 157 113 115 129 145 152 155 164 168 177 180 187 195 203 98 0 2 22 32 35 38 41 42 43 43 37 26 
27 28 8 0 3 8 24 38 52 131 180 200 200 207 211 210 200 200 200 186 123 3 0 0 36 73 116 114 123 108 126 146 141 123 135 158 165 150 100 107 121 135 132 149 161 170 179 183 192 196 202 102 0 6 5 32 38 39 38 39 40 38 31 21 
44 71 62 25 3 2 0 2 4 158 181 195 199 207 211 209 201 207 204 190 96 0 0 0 16 68 106 117 111 122 102 136 146 128 123 149 165 164 118 105 132 147 148 146 152 164 176 184 192 195 198 104 0 22 8 6 30 41 38 35 31 24 25 22 
52 68 72 46 33 3 0 2 6 183 182 192 200 208 212 215 207 211 205 191 58 0 0 0 7 51 99 116 116 126 91 111 138 131 116 138 164 163 115 114 129 146 162 163 165 171 177 185 194 197 199 92 2 48 51 1 0 6 16 21 24 21 23 24 
93 88 76 55 37 25 21 20 44 189 181 195 201 207 211 208 203 211 207 184 17 0 0 1 4 48 89 112 115 123 88 100 134 135 116 122 154 141 97 108 128 143 160 167 173 179 183 186 199 196 199 68 0 19 81 46 0 6 22 25 27 24 21 25 
136 143 119 96 80 73 64 55 96 190 177 193 199 207 211 208 208 213 207 137 1 0 0 2 4 37 73 92 102 117 90 102 136 134 115 128 147 136 89 95 126 143 157 168 173 178 183 186 196 195 193 35 0 0 3 19 1 15 26 34 31 26 21 23 
177 195 177 155 122 92 71 63 126 179 180 191 203 210 212 209 213 215 209 80 0 0 0 4 6 24 62 89 99 122 99 117 142 138 123 134 149 121 91 94 106 124 141 157 170 175 179 180 193 190 167 1 0 0 0 0 2 20 37 36 30 25 20 28 
188 210 198 182 161 130 77 52 150 169 182 188 203 211 212 211 217 217 205 28 0 0 2 5 8 17 48 85 94 120 98 120 143 147 133 139 150 117 72 78 74 90 104 140 163 171 177 187 192 183 79 2 4 0 0 0 1 18 31 33 28 25 26 32 
190 214 209 197 177 147 97 66 165 165 184 187 203 214 212 213 218 218 173 1 0 1 3 5 8 11 33 62 84 116 99 107 142 158 140 138 143 123 66 58 64 79 101 130 155 168 176 188 190 133 28 59 64 55 31 8 0 6 24 25 28 30 33 36 
199 230 226 208 184 148 87 78 160 163 179 186 204 213 214 214 219 219 104 0 0 2 3 5 6 8 18 49 74 104 99 89 125 155 141 136 136 107 55 46 55 74 95 136 163 177 180 189 159 17 35 81 129 136 93 63 43 20 7 20 29 33 37 37 
209 242 238 209 176 112 50 63 135 154 166 179 204 213 215 218 221 211 26 0 0 1 2 3 4 6 8 32 61 102 105 74 93 120 112 121 119 80 42 29 36 48 65 100 148 177 178 158 34 74 47 96 176 203 195 131 99 86 69 36 27 33 36 37 
198 224 218 198 144 85 58 75 120 134 148 162 190 204 207 216 217 132 0 0 0 0 0 1 2 2 5 12 40 89 104 69 67 77 84 96 97 59 17 19 28 29 38 42 61 86 176 183 184 132 73 95 153 212 242 241 223 216 216 178 86 37 28 31 
195 217 208 201 209 216 215 215 218 219 219 219 215 208 204 207 197 72 50 36 15 0 0 0 0 2 3 8 13 44 77 46 51 60 68 74 52 12 1 8 14 17 13 4 0 44 224 222 160 115 80 75 119 183 224 235 236 239 244 231 126 100 49 29 
183 203 218 223 224 223 222 221 220 221 220 222 222 220 220 220 218 215 215 214 215 192 143 80 25 0 0 1 3 6 18 12 24 47 61 47 12 0 1 0 3 5 3 1 0 0 2 10 14 15 35 66 86 102 137 162 182 188 218 222 136 64 54 53 
139 184 222 227 228 226 224 222 222 223 223 224 223 223 222 222 221 222 222 221 222 222 220 218 214 187 116 35 1 1 0 2 8 28 34 16 5 5 1 1 1 0 0 0 0 0 4 24 52 54 50 50 52 53 51 48 43 43 52 61 67 59 73 49 
39 188 227 231 232 231 228 226 224 225 225 226 224 224 224 223 226 224 223 227 231 229 230 228 227 224 223 219 168 35 17 22 30 36 43 43 50 54 48 41 32 26 17 15 19 36 39 44 49 46 43 41 44 36 41 44 47 50 47 52 61 115 187 160 
105 180 223 227 229 228 227 225 224 224 224 226 226 222 225 228 231 234 235 224 218 218 224 226 227 233 230 229 224 129 72 36 32 42 49 55 52 57 59 57 54 50 47 50 80 137 175 85 48 48 47 45 48 94 46 45 49 54 51 58 100 181 183 209 
122 185 221 225 225 226 225 223 222 222 223 225 225 222 221 223 217 201 199 207 213 216 222 225 227 221 215 218 221 222 223 220 166 99 48 59 65 64 64 59 52 51 58 81 125 186 180 175 50 40 42 45 68 147 53 47 48 54 58 73 123 211 212 225 
